<?xml version="1.0" encoding="utf-8"?>
<!-- Generator: Adobe Illustrator 15.0.0, SVG Export Plug-In . SVG Version: 6.00 Build 0)  -->
<!DOCTYPE svg PUBLIC "-//W3C//DTD SVG 1.1//EN" "http://www.w3.org/Graphics/SVG/1.1/DTD/svg11.dtd">
<svg version="1.1" id="Layer_1" xmlns="http://www.w3.org/2000/svg" xmlns:xlink="http://www.w3.org/1999/xlink" x="0px" y="0px"
	 width="22.139px" height="15.242px" viewBox="286.571 413.324 22.139 15.242"
	 enable-background="new 286.571 413.324 22.139 15.242" xml:space="preserve">
<path fill="#221F1F" d="M302.851,423.332l5.857-10.007l-22.137,0.054v1.346h0.968v12.254h1.814c-0.079,0.15-0.138,0.316-0.138,0.5
	c0,0.602,0.487,1.088,1.087,1.088c0.603,0,1.09-0.486,1.09-1.088c0-0.184-0.057-0.35-0.138-0.5h6.704
	c-0.08,0.15-0.137,0.316-0.137,0.5c0,0.602,0.486,1.088,1.087,1.088s1.09-0.486,1.09-1.088c0-0.184-0.059-0.35-0.139-0.5h1.744
	v-1.176h-12.892v-2.471H302.851L302.851,423.332z"/>
</svg>
