<?xml version="1.0" encoding="utf-8"?>
<!-- Generator: Adobe Illustrator 15.0.0, SVG Export Plug-In . SVG Version: 6.00 Build 0)  -->
<!DOCTYPE svg PUBLIC "-//W3C//DTD SVG 1.1//EN" "http://www.w3.org/Graphics/SVG/1.1/DTD/svg11.dtd">
<svg version="1.1" id="Layer_1" xmlns="http://www.w3.org/2000/svg" xmlns:xlink="http://www.w3.org/1999/xlink" x="0px" y="0px"
	 width="13.316px" height="13.382px" viewBox="0 0 13.316 13.382" enable-background="new 0 0 13.316 13.382" xml:space="preserve">
<path opacity="0.3" enable-background="new    " d="M13.106,1.637c-0.154-0.381-0.387-0.697-0.688-0.969
	c-0.426-0.387-0.914-0.654-1.483-0.658C8.156-0.002,5.374,0.004,2.595,0C2.24-0.002,1.906,0.072,1.585,0.23
	C0.582,0.729,0.036,1.568,0.017,2.709C0.007,3.313,0.007,3.914,0.007,4.518C0.004,4.549,0.001,4.582,0.001,4.609
	c0,0.309,0,0.617,0,0.928c0,0.17-0.002,0.34,0,0.51c-0.002,1.55,0,3.105-0.002,4.658c-0.003,0.365,0.076,0.707,0.212,1.041
	c0.155,0.381,0.39,0.697,0.688,0.969c0.426,0.388,0.914,0.654,1.483,0.658c2.778,0.012,5.562,0.006,8.341,0.01
	c0.354,0,0.688-0.071,1.01-0.229c1.002-0.495,1.549-1.338,1.565-2.479c0.013-0.604,0.011-1.205,0.013-1.811
	c0.002-0.029,0.006-0.064,0.006-0.088c0-0.313,0-0.619,0-0.932c0-0.17,0.002-0.34,0-0.51c0.002-1.552,0-3.105,0.002-4.659
	C13.321,2.313,13.242,1.971,13.106,1.637z M8.811,6.711C8.789,6.932,8.783,6.932,8.559,6.932c-0.354,0-0.703,0-1.066,0
	c0,1.565,0,3.126,0,4.698c-0.053,0.004-0.094,0.009-0.135,0.009c-0.546,0-1.094-0.002-1.642,0.002
	c-0.102,0.002-0.13-0.026-0.126-0.127c0.005-1.449,0-2.897,0-4.349c0-0.064,0-0.127,0-0.205c-0.322,0-0.644,0-0.971,0
	c0-0.539,0-1.066,0-1.605c0.315,0,0.635,0,0.965,0c0.002-0.057,0.006-0.1,0.006-0.143c0.007-0.453-0.006-0.904,0.018-1.357
	c0.036-0.816,0.521-1.359,1.325-1.494C7.161,2.324,7.393,2.308,7.62,2.3C8.015,2.29,8.405,2.298,8.8,2.298c0.041,0,0.08,0,0.136,0
	c0,0.555,0,1.09,0,1.639C8.891,3.938,8.85,3.941,8.811,3.941c-0.306,0-0.604,0-0.906,0C7.602,3.943,7.49,4.057,7.487,4.361
	c0,0.324,0,0.646,0,0.984c0.486,0,0.965,0,1.447,0C8.891,5.811,8.856,6.262,8.811,6.711z"/>
</svg>
