<?xml version="1.0" encoding="utf-8"?>
<!-- Generator: Adobe Illustrator 15.0.0, SVG Export Plug-In . SVG Version: 6.00 Build 0)  -->
<!DOCTYPE svg PUBLIC "-//W3C//DTD SVG 1.1//EN" "http://www.w3.org/Graphics/SVG/1.1/DTD/svg11.dtd">
<svg version="1.1" id="Layer_1" xmlns="http://www.w3.org/2000/svg" xmlns:xlink="http://www.w3.org/1999/xlink" x="0px" y="0px"
	 width="13.317px" height="13.382px" viewBox="290.981 414.254 13.317 13.382"
	 enable-background="new 290.981 414.254 13.317 13.382" xml:space="preserve">
<g opacity="0.3">
	<path fill-rule="evenodd" clip-rule="evenodd" d="M304.262,419.25c0-0.056,0-0.113,0-0.167c-1.294,0-2.563,0-3.851,0
		c0.438,0.731,0.688,1.481,0.574,2.331c-0.11,0.843-0.465,1.563-1.093,2.118c-1.127,0.993-2.663,1.193-4.019,0.384
		c-0.68-0.405-1.173-0.986-1.431-1.726c-0.382-1.083-0.25-2.128,0.4-3.116c-1.29,0-2.542,0-3.813,0
		c-0.005,0.057-0.009,0.1-0.009,0.141c-0.001,1.942,0,3.885-0.002,5.826c-0.002,0.35,0.076,0.676,0.211,0.994
		c0.154,0.364,0.388,0.667,0.684,0.926c0.424,0.37,0.91,0.627,1.478,0.629c2.764,0.013,5.53,0.006,8.296,0.01
		c0.354,0.001,0.687-0.068,1.004-0.221c0.998-0.475,1.541-1.278,1.561-2.367C304.286,423.092,304.262,421.17,304.262,419.25z"/>
	<path fill-rule="evenodd" clip-rule="evenodd" d="M291.031,418.611c0.034,0.006,0.05,0.013,0.065,0.013
		c1.345,0,2.69,0.002,4.037-0.001c0.043,0,0.095-0.019,0.129-0.045c0.188-0.138,0.359-0.3,0.558-0.418
		c0.228-0.135,0.468-0.256,0.716-0.34c0.24-0.08,0.498-0.104,0.746-0.16c0.45-0.1,0.891-0.001,1.314,0.113
		c0.484,0.128,0.911,0.396,1.292,0.728c0.104,0.091,0.203,0.131,0.339,0.131c1.288-0.006,2.572-0.004,3.86-0.004
		c0.054,0,0.111-0.009,0.174-0.013c0-0.542,0.014-1.062-0.007-1.583c-0.01-0.28-0.054-0.564-0.125-0.836
		c-0.162-0.632-0.543-1.105-1.088-1.467c-0.434-0.286-0.907-0.426-1.414-0.428c-2.324-0.008-4.65-0.004-6.975-0.002
		c-0.051,0-0.104,0.003-0.171,0.007c0,0.079,0,0.143,0,0.206c0,0.91,0,1.819,0,2.728c0,0.375,0,0.371-0.384,0.367
		c-0.129,0-0.175-0.05-0.172-0.171c0.004-0.214,0.002-0.43,0.002-0.646c0-0.769-0.002-1.538,0.002-2.307
		c0-0.133-0.031-0.208-0.181-0.187c-0.042,0.007-0.085,0.005-0.14,0.008c-0.007,0.062-0.015,0.119-0.015,0.177
		c-0.002,0.92,0,1.84,0,2.76c0,0.366,0,0.359-0.371,0.369c-0.155,0.005-0.2-0.046-0.2-0.201c0.007-0.941,0.005-1.883,0.003-2.825
		c0-0.066-0.011-0.133-0.018-0.215c-0.05,0.023-0.076,0.038-0.106,0.049c-0.248,0.089-0.248,0.088-0.248,0.358
		c0,0.824,0,1.647,0,2.47c0,0.36,0,0.355-0.359,0.36c-0.132,0.003-0.175-0.037-0.174-0.173c0.006-0.684,0.002-1.367,0.002-2.05
		c0-0.185,0-0.37,0-0.559c-0.033,0.005-0.045,0.003-0.053,0.009c-0.596,0.438-0.965,1.031-1.032,1.759
		c-0.058,0.64-0.015,1.29-0.017,1.936C291.023,418.551,291.029,418.577,291.031,418.611z M300.813,415.781
		c0-0.185,0.183-0.38,0.368-0.383c0.49-0.006,0.979-0.006,1.468-0.002c0.217,0.003,0.415,0.234,0.415,0.469
		c0,0.446,0.001,0.892-0.007,1.337c-0.001,0.098-0.024,0.207-0.074,0.288c-0.069,0.111-0.161,0.198-0.321,0.195
		c-0.495-0.011-0.99-0.002-1.484-0.005c-0.199-0.001-0.363-0.169-0.364-0.368c-0.002-0.262-0.001-0.527-0.001-0.79
		C300.812,416.276,300.811,416.028,300.813,415.781z"/>
	<path fill-rule="evenodd" clip-rule="evenodd" d="M297.663,418.412c-1.502-0.015-2.646,1.152-2.651,2.601
		c-0.008,1.458,1.148,2.548,2.478,2.61c1.594,0.074,2.762-1.227,2.738-2.61C300.232,419.572,299.067,418.426,297.663,418.412z
		 M297.62,422.946c-1.095-0.012-1.91-0.801-1.917-1.919c-0.007-1.098,0.798-1.909,1.887-1.939c1.067-0.029,1.956,0.803,1.966,1.926
		C299.551,422.125,298.697,422.958,297.62,422.946z"/>
</g>
</svg>
