<?xml version="1.0" encoding="utf-8"?>
<!-- Generator: Adobe Illustrator 15.0.0, SVG Export Plug-In . SVG Version: 6.00 Build 0)  -->
<!DOCTYPE svg PUBLIC "-//W3C//DTD SVG 1.1//EN" "http://www.w3.org/Graphics/SVG/1.1/DTD/svg11.dtd">
<svg version="1.1" id="Layer_1" xmlns="http://www.w3.org/2000/svg" xmlns:xlink="http://www.w3.org/1999/xlink" x="0px" y="0px"
	 width="27.442px" height="27.544px" viewBox="0 0 27.442 27.544" enable-background="new 0 0 27.442 27.544" xml:space="preserve">
<g>
	<g>
		<path fill-rule="evenodd" clip-rule="evenodd" fill="#DAD5C0" d="M27.424,10.264c0-0.117,0-0.234,0-0.346
			c-2.678,0-5.305,0-7.968,0c0.907,1.514,1.423,3.066,1.188,4.822c-0.229,1.746-0.963,3.234-2.262,4.384
			c-2.332,2.055-5.511,2.469-8.315,0.795c-1.406-0.84-2.427-2.041-2.96-3.57c-0.791-2.242-0.518-4.406,0.828-6.449
			c-2.67,0-5.26,0-7.889,0c-0.01,0.119-0.019,0.207-0.019,0.293c-0.002,4.018,0,8.037-0.004,12.056
			c-0.004,0.721,0.157,1.398,0.437,2.057c0.319,0.752,0.803,1.379,1.414,1.916c0.877,0.766,1.884,1.295,3.058,1.301
			c5.719,0.025,11.444,0.012,17.167,0.02c0.73,0.002,1.42-0.143,2.076-0.455c2.066-0.982,3.189-2.646,3.229-4.9
			C27.475,18.215,27.424,14.239,27.424,10.264z"/>
		<path fill-rule="evenodd" clip-rule="evenodd" fill="#DAD5C0" d="M0.047,8.944c0.07,0.012,0.104,0.025,0.135,0.025
			c2.783,0.002,5.567,0.002,8.354-0.002c0.09,0,0.197-0.039,0.268-0.094C9.19,8.588,9.547,8.252,9.957,8.006
			c0.471-0.279,0.967-0.527,1.48-0.703c0.497-0.166,1.031-0.215,1.544-0.33c0.932-0.209,1.843-0.002,2.72,0.232
			c1.002,0.266,1.886,0.82,2.674,1.506c0.216,0.188,0.42,0.271,0.701,0.271c2.665-0.012,5.322-0.01,7.988-0.012
			c0.111,0,0.23-0.018,0.359-0.025c0-1.121,0.028-2.199-0.014-3.275c-0.021-0.58-0.111-1.168-0.26-1.73
			c-0.335-1.307-1.123-2.289-2.25-3.035c-0.898-0.592-1.878-0.881-2.927-0.885c-4.81-0.018-9.622-0.008-14.433-0.006
			c-0.104,0-0.214,0.008-0.354,0.016c0,0.162,0,0.295,0,0.426c0,1.881,0,3.764,0,5.645c0,0.777,0,0.766-0.794,0.76
			c-0.267,0-0.361-0.104-0.355-0.355c0.009-0.443,0.004-0.889,0.004-1.336c0-1.59-0.004-3.184,0.005-4.775
			c0-0.275-0.065-0.43-0.375-0.385C5.586,0.024,5.496,0.02,5.383,0.026C5.369,0.153,5.354,0.272,5.354,0.391
			c-0.004,1.904,0,3.807,0,5.711c0,0.758,0,0.744-0.768,0.764C4.264,6.875,4.171,6.77,4.171,6.45
			c0.015-1.947,0.011-3.895,0.007-5.844c0-0.139-0.023-0.275-0.037-0.445C4.037,0.208,3.982,0.241,3.92,0.262
			C3.407,0.448,3.407,0.446,3.407,1.004c0,1.703,0,3.406,0,5.109c0,0.746,0,0.734-0.743,0.746C2.391,6.866,2.302,6.784,2.304,6.5
			c0.013-1.414,0.004-2.828,0.004-4.24c0-0.383,0-0.766,0-1.156C2.239,1.116,2.215,1.11,2.199,1.122
			C0.967,2.03,0.202,3.254,0.063,4.76c-0.119,1.326-0.029,2.67-0.034,4.006C0.028,8.819,0.041,8.872,0.047,8.944z M20.287,3.086
			c0-0.383,0.377-0.789,0.762-0.793c1.014-0.014,2.024-0.016,3.037-0.004c0.448,0.006,0.858,0.482,0.858,0.971
			c0,0.922,0.002,1.844-0.015,2.768c-0.002,0.201-0.051,0.428-0.153,0.596c-0.144,0.229-0.333,0.408-0.665,0.402
			c-1.023-0.021-2.049-0.004-3.071-0.01c-0.412-0.002-0.751-0.35-0.753-0.76c-0.005-0.545-0.003-1.092-0.003-1.635
			C20.284,4.11,20.282,3.598,20.287,3.086z"/>
		<path fill-rule="evenodd" clip-rule="evenodd" fill="#DAD5C0" d="M13.77,8.532c-3.107-0.031-5.475,2.383-5.486,5.381
			c-0.016,3.017,2.377,5.275,5.127,5.402c3.297,0.154,5.715-2.537,5.666-5.4C19.084,10.93,16.674,8.559,13.77,8.532z M13.681,17.912
			c-2.265-0.023-3.952-1.658-3.967-3.972c-0.015-2.271,1.651-3.949,3.904-4.014c2.208-0.059,4.048,1.662,4.067,3.986
			C17.676,16.213,15.907,17.938,13.681,17.912z"/>
	</g>
</g>
</svg>
