<?xml version="1.0" encoding="utf-8"?>
<!-- Generator: Adobe Illustrator 15.0.0, SVG Export Plug-In . SVG Version: 6.00 Build 0)  -->
<!DOCTYPE svg PUBLIC "-//W3C//DTD SVG 1.1//EN" "http://www.w3.org/Graphics/SVG/1.1/DTD/svg11.dtd">
<svg version="1.1" id="Layer_1" xmlns="http://www.w3.org/2000/svg" xmlns:xlink="http://www.w3.org/1999/xlink" x="0px" y="0px"
	 width="22px" height="15px" viewBox="0 0 22 15" enable-background="new 0 0 22 15" xml:space="preserve">
<g id="Layer_x0020_1">
	<path fill="#A5925A" d="M2.929,15H19.07L22,1.7h-1.395c-0.127,0.783-0.767,1.053-1.635,1.083c-0.107,0.376-0.213,0.755-0.318,1.132
		l1.234,0.047c0.069,2.996-2.662,4.455-3.587,3.96s-0.53-1.98,0.916-2.262V4.998c-0.821,0.112-1.327-0.659-1.514-1.933h-0.8
		c-0.104,1.085-0.596,1.854-1.553,1.933v0.663c1.291,0.046,1.871,2.6,0.199,2.262c-1.671-0.336-2.852-4.135-0.559-4.857V2.17
		C11.917,1.952,11.425,1.229,11.518,0c-0.171,0.009-0.344,0.007-0.516,0.003C10.828,0.007,10.657,0.009,10.482,0
		c0.093,1.229-0.438,1.952-1.515,2.17l0.001,0.895c2.293,0.722,1.152,4.521-0.52,4.857C6.779,8.261,7.399,5.707,8.69,5.661V4.998
		C7.732,4.919,7.2,4.151,7.094,3.065H6.298C6.195,4.314,5.611,5.096,4.745,4.998v0.663c1.447,0.281,1.879,1.767,0.956,2.262
		c-0.924,0.495-3.66-0.964-3.586-3.96L3.35,3.915C3.241,3.538,3.137,3.16,3.031,2.783C2.159,2.752,1.522,2.483,1.396,1.7H0L2.929,15
		L2.929,15z"/>
</g>
</svg>
