<?xml version="1.0" encoding="utf-8"?>
<!-- Generator: Adobe Illustrator 15.0.0, SVG Export Plug-In . SVG Version: 6.00 Build 0)  -->
<!DOCTYPE svg PUBLIC "-//W3C//DTD SVG 1.1//EN" "http://www.w3.org/Graphics/SVG/1.1/DTD/svg11.dtd">
<svg version="1.1" id="Layer_1" xmlns="http://www.w3.org/2000/svg" xmlns:xlink="http://www.w3.org/1999/xlink" x="0px" y="0px"
	 width="21.214px" height="18.196px" viewBox="0 0 21.214 18.196" enable-background="new 0 0 21.214 18.196" xml:space="preserve">
<g>
	<path fill-rule="evenodd" clip-rule="evenodd" d="M6.698,10.847c-0.661,0.171-1.18,0.323-1.706,0.438
		c-0.521,0.112-0.669,0.342-0.4,0.843c1.128,2.102,2.876,3.326,5.228,3.613c3.064,0.374,5.718-1.231,6.939-4.11
		c0.072-0.168,0.161-0.328,0.267-0.539c0.577,0.405,1.148,0.751,1.642,1.185c0.146,0.129,0.181,0.56,0.082,0.765
		c-1.165,2.42-3.061,4.068-5.625,4.783c-4.012,1.12-7.823-0.344-10.143-3.759c-0.306-0.448-0.551-0.946-0.758-1.447
		c-0.161-0.394-0.359-0.495-0.76-0.364C1.044,12.393,0.604,12.468,0,12.611C0.75,10.94,1.435,9.416,2.168,7.783
		C3.685,8.809,5.139,9.792,6.698,10.847z"/>
	<path fill-rule="evenodd" clip-rule="evenodd" d="M21.215,5.457c-0.055,0.203-0.068,0.296-0.104,0.378
		c-0.665,1.467-1.331,2.933-2.028,4.467c-1.494-0.997-2.947-1.966-4.502-3.001c0.586-0.163,1.05-0.319,1.525-0.417
		c0.579-0.117,0.672-0.365,0.414-0.895c-1.242-2.55-4.416-4.064-7.318-3.458c-2.276,0.476-3.714,1.73-5.024,4.443
		c-0.644-0.444-1.275-0.88-1.955-1.35c0.327-1.06,0.952-1.916,1.686-2.685c4.248-4.463,11.204-3.747,14.457,1.48
		c0.187,0.3,0.35,0.627,0.456,0.963c0.171,0.541,0.514,0.605,0.988,0.465C20.239,5.718,20.674,5.606,21.215,5.457z"/>
</g>
</svg>
